<svg width="32" height="32" viewBox="0 0 32 32" fill="none" xmlns="http://www.w3.org/2000/svg">
<path fill-rule="evenodd" clip-rule="evenodd" d="M3 0C1.34315 0 0 1.34315 0 3V18.3333C0 19.9902 1.34315 21.3333 3 21.3333H5.33335V8.3333C5.33335 6.67645 6.6765 5.3333 8.33335 5.3333H21.3333V3C21.3333 1.34315 19.9902 0 18.3333 0H3ZM10.6667 29V26.6666H23.6667C25.3235 26.6666 26.6667 25.3235 26.6667 23.6666V10.6667H29C30.6568 10.6667 32 12.0098 32 13.6667V29C32 30.6569 30.6568 32 29 32H13.6667C12.0098 32 10.6667 30.6569 10.6667 29ZM21.3334 18.3333V10.6667H13.6667C12.0098 10.6667 10.6667 12.0098 10.6667 13.6667V21.3333H18.3334C19.9902 21.3333 21.3334 19.9901 21.3334 18.3333Z" fill="#FFB71B"/>
</svg>
